# xmcd CD database file
#
# Track frame offsets:
#	150
#	23020
#	47057
#	62290
#	80375
#	96640
#	117110
#	129600
#	149222
#	170585
#
# Disc length: 2615 seconds
#
# Revision: 0
# Processed by: cddbd v1.5.2PL0 Copyright (c) Steve Scherf et al.
# Submitted via: CDex 1.70beta2
#
DISCID=8a0a350a
DTITLE=Caroline.jazzband - whoopin
DYEAR=1900
DGENRE=Jazz
TTITLE0=Mardi gras in N.O.
TTITLE1=After you`ve gone
TTITLE2=I`m in the mood for love
TTITLE3=Whoopin`blues
TTITLE4=Crazy rythm
TTITLE5=Nobody knows you when....
TTITLE6=Fais moi mal Johnny
TTITLE7=Hold`em Loe
TTITLE8=Jump jive and wail
TTITLE9=Deep river
EXTD=
EXTT0=
EXTT1=
EXTT2=
EXTT3=
EXTT4=
EXTT5=
EXTT6=
EXTT7=
EXTT8=
EXTT9=
PLAYORDER=
